<svg width="18" height="16" viewBox="0 0 18 16" fill="none" xmlns="http://www.w3.org/2000/svg">
<path fill-rule="evenodd" clip-rule="evenodd" d="M3.6665 4.33337C3.6665 6.17139 5.16187 7.66663 6.99988 7.66663C8.83789 7.66663 10.3333 6.17139 10.3333 4.33337C10.3333 2.49536 8.83789 1 6.99988 1C5.16187 1 3.6665 2.49536 3.6665 4.33337ZM4.6665 4.33337C4.6665 3.04663 5.71326 2 6.99988 2C8.2865 2 9.33325 3.04663 9.33325 4.33337C9.33325 5.62 8.2865 6.66663 6.99988 6.66663C5.71326 6.66663 4.6665 5.62 4.6665 4.33337Z" fill="#0582FF"/>
<path d="M6.99988 7.51663C5.2447 7.51663 3.8165 6.08854 3.8165 4.33337H3.5165C3.5165 6.25424 5.07903 7.81663 6.99988 7.81663V7.51663ZM10.1833 4.33337C10.1833 6.08854 8.75505 7.51663 6.99988 7.51663V7.81663C8.92073 7.81663 10.4833 6.25424 10.4833 4.33337H10.1833ZM6.99988 1.15C8.75505 1.15 10.1833 2.5782 10.1833 4.33337H10.4833C10.4833 2.41252 8.92073 0.85 6.99988 0.85V1.15ZM3.8165 4.33337C3.8165 2.5782 5.24471 1.15 6.99988 1.15V0.85C5.07902 0.85 3.5165 2.41252 3.5165 4.33337H3.8165ZM6.99988 1.85C5.63042 1.85 4.5165 2.96378 4.5165 4.33337H4.8165C4.8165 3.12948 5.79609 2.15 6.99988 2.15V1.85ZM9.48325 4.33337C9.48325 2.96378 8.36934 1.85 6.99988 1.85V2.15C8.20366 2.15 9.18325 3.12948 9.18325 4.33337H9.48325ZM6.99988 6.81663C8.36933 6.81663 9.48325 5.70285 9.48325 4.33337H9.18325C9.18325 5.53714 8.20367 6.51663 6.99988 6.51663V6.81663ZM4.5165 4.33337C4.5165 5.70285 5.63042 6.81663 6.99988 6.81663V6.51663C5.79609 6.51663 4.8165 5.53714 4.8165 4.33337H4.5165Z" fill="#0582FF"/>
<path fill-rule="evenodd" clip-rule="evenodd" d="M1.5 15H12.5C12.776 15 13 14.776 13 14.5V12.1666C13 10.4207 11.5793 9 9.83337 9H4.16663C2.42065 9 1 10.4207 1 12.1666V14.5C1 14.776 1.224 15 1.5 15ZM12 14H2V12.1666C2 10.972 2.97205 10 4.16663 10H9.83337C11.028 10 12 10.972 12 12.1666V14Z" fill="#0582FF"/>
<path d="M2 14H1.85V14.15H2V14ZM12 14V14.15H12.15V14H12ZM12.5 14.85H1.5V15.15H12.5V14.85ZM12.85 14.5C12.85 14.6932 12.6932 14.85 12.5 14.85V15.15C12.8588 15.15 13.15 14.8588 13.15 14.5H12.85ZM12.85 12.1666V14.5H13.15V12.1666H12.85ZM9.83337 9.15C11.4965 9.15 12.85 10.5035 12.85 12.1666H13.15C13.15 10.3378 11.6622 8.85 9.83337 8.85V9.15ZM4.16663 9.15H9.83337V8.85H4.16663V9.15ZM1.15 12.1666C1.15 10.5035 2.5035 9.15 4.16663 9.15V8.85C2.33781 8.85 0.85 10.3378 0.85 12.1666H1.15ZM1.15 14.5V12.1666H0.85V14.5H1.15ZM1.5 14.85C1.30684 14.85 1.15 14.6932 1.15 14.5H0.85C0.85 14.8588 1.14116 15.15 1.5 15.15V14.85ZM2 14.15H12V13.85H2V14.15ZM1.85 12.1666V14H2.15V12.1666H1.85ZM4.16663 9.85C2.8892 9.85 1.85 10.8892 1.85 12.1666H2.15C2.15 11.0549 3.05489 10.15 4.16663 10.15V9.85ZM9.83337 9.85H4.16663V10.15H9.83337V9.85ZM12.15 12.1666C12.15 10.8892 11.1108 9.85 9.83337 9.85V10.15C10.9451 10.15 11.85 11.0549 11.85 12.1666H12.15ZM12.15 14V12.1666H11.85V14H12.15Z" fill="#0582FF"/>
<path d="M16.5001 7.8335H10.8335C10.5575 7.8335 10.3335 7.6095 10.3335 7.3335C10.3335 7.0575 10.5575 6.8335 10.8335 6.8335H16.5001C16.7761 6.8335 17.0001 7.0575 17.0001 7.3335C17.0001 7.6095 16.7761 7.8335 16.5001 7.8335Z" fill="#0582FF" stroke="#0582FF" stroke-width="0.3"/>
<path d="M13.8334 10.5C13.7053 10.5 13.5774 10.4513 13.48 10.3534C13.2847 10.158 13.2847 9.84131 13.48 9.646L15.7933 7.33264L13.48 5.01929C13.2847 4.82397 13.2847 4.50732 13.48 4.31201C13.6753 4.1167 13.9919 4.1167 14.1874 4.31201L16.854 6.97864C17.0493 7.17395 17.0493 7.49072 16.854 7.68604L14.1874 10.3527C14.0894 10.4513 13.9613 10.5 13.8334 10.5Z" fill="#0582FF" stroke="#0582FF" stroke-width="0.3"/>
</svg>
