<svg width="16" height="15" viewBox="0 0 16 15" fill="none" xmlns="http://www.w3.org/2000/svg">
<path fill-rule="evenodd" clip-rule="evenodd" d="M12.9289 0H4.96289C3.70903 0 2.69258 0.989991 2.69258 2.21121V2.74655H2.46953C1.21628 2.74798 0.200682 3.73713 0.199219 4.95776V12.7991C0.206483 14.0127 1.21555 14.9943 2.46157 15H12.9289C14.1822 14.9986 15.1978 14.0094 15.1992 12.7888V2.18534C15.1832 0.974832 14.1719 0.00131432 12.9289 0ZM5.32136 2.475C5.02806 2.475 4.7903 2.81079 4.7903 3.225C4.7903 3.63921 5.02806 3.975 5.32136 3.975H6.98361C7.27691 3.975 7.51467 3.63921 7.51467 3.225C7.51467 2.81079 7.27691 2.475 6.98361 2.475H5.32136ZM12.5625 2.475H8.91138C8.61808 2.475 8.38031 2.70658 8.38031 2.99224V5.14914C8.38031 5.4348 8.61808 5.66638 8.91138 5.66638H12.5625C12.8558 5.66638 13.0935 5.4348 13.0935 5.14914V2.99224C13.0935 2.70658 12.8558 2.475 12.5625 2.475ZM12.0314 5.00948H9.44245V3.50948H12.0314V5.00948ZM4.7903 5.3819C4.7903 4.96768 5.02806 4.6319 5.32136 4.6319H6.98361C7.27691 4.6319 7.51467 4.96768 7.51467 5.3819C7.51467 5.79611 7.27691 6.1319 6.98361 6.1319H5.32136C5.02806 6.1319 4.7903 5.79611 4.7903 5.3819ZM12.5598 8.28879C12.8531 8.28879 13.0909 7.95301 13.0909 7.53879C13.0909 7.12458 12.8531 6.78879 12.5598 6.78879H5.32136C5.02806 6.78879 4.7903 7.12458 4.7903 7.53879C4.7903 7.95301 5.02806 8.28879 5.32136 8.28879H12.5598ZM13.0909 9.69569C13.0909 10.1099 12.8531 10.4457 12.5598 10.4457H5.32136C5.02806 10.4457 4.7903 10.1099 4.7903 9.69569C4.7903 9.28148 5.02806 8.94569 5.32136 8.94569H12.5598C12.8531 8.94569 13.0909 9.28148 13.0909 9.69569ZM12.5598 12.6026C12.8531 12.6026 13.0909 12.2668 13.0909 11.8526C13.0909 11.4384 12.8531 11.1026 12.5598 11.1026H5.32136C5.02806 11.1026 4.7903 11.4384 4.7903 11.8526C4.7903 12.2668 5.02806 12.6026 5.32136 12.6026H12.5598ZM12.9289 13.9655C13.588 13.9656 14.1255 13.4513 14.1371 12.8095L14.1291 2.21121C14.1291 1.56132 13.5882 1.03448 12.9209 1.03448H4.95493C4.29179 1.03446 3.75258 1.55502 3.74675 2.20086V12.0724C3.74537 12.486 3.57083 12.8811 3.26348 13.1664C2.95525 13.4526 2.53891 13.6015 2.11372 13.5776C1.82042 13.5626 1.59513 13.3189 1.61053 13.0332C1.62593 12.7475 1.87618 12.5281 2.16948 12.5431C2.30399 12.5516 2.43598 12.5047 2.53326 12.4138C2.6276 12.3258 2.68207 12.2048 2.68461 12.0776V3.77069H2.46157C1.79431 3.77069 1.25339 4.29753 1.25339 4.94741V12.7888C1.25339 13.4387 1.79431 13.9655 2.46157 13.9655H12.9289Z" fill="#F46B1B"/>
</svg>
