<svg width="16" height="16" viewBox="0 0 16 16" fill="none" xmlns="http://www.w3.org/2000/svg">
<path opacity="0.5" fill-rule="evenodd" clip-rule="evenodd" d="M11.2547 10.312L15.8047 14.862C16.0653 15.1227 16.0653 15.544 15.8047 15.8047C15.6747 15.9347 15.504 16 15.3333 16C15.1627 16 14.992 15.9347 14.862 15.8047L10.312 11.2547C9.22334 12.136 7.84 12.6667 6.33334 12.6667C2.84134 12.6667 0 9.82531 0 6.33331C0 2.84131 2.84131 0 6.33331 0C9.82531 0 12.6667 2.84134 12.6667 6.33334C12.6667 7.84 12.136 9.22334 11.2547 10.312ZM1.33334 6.33331C1.33334 9.09066 3.576 11.3333 6.33334 11.3333C9.09066 11.3333 11.3333 9.09066 11.3333 6.33331C11.3333 3.57597 9.09069 1.33331 6.33334 1.33331C3.576 1.33331 1.33334 3.57597 1.33334 6.33331Z" fill="black"/>
</svg>
